<svg xmlns="http://www.w3.org/2000/svg" viewBox="0 0 64 64">
  <!-- Background circle -->
  <circle cx="32" cy="32" r="32" fill="#8b6f47"/>
  
  <!-- Open book -->
  <g transform="translate(12, 16)">
    <!-- Left page -->
    <path d="M 0 8 Q 0 0, 8 0 L 16 0 L 16 32 L 8 32 Q 0 32, 0 24 Z" 
          fill="#f4e8d0" 
          stroke="#5a4a3a" 
          stroke-width="1"/>
    
    <!-- Right page -->
    <path d="M 24 8 Q 24 0, 32 0 L 40 0 L 40 32 L 32 32 Q 24 32, 24 24 Z" 
          fill="#f4e8d0" 
          stroke="#5a4a3a" 
          stroke-width="1"/>
    
    <!-- Center spine shadow -->
    <line x1="20" y1="0" x2="20" y2="32" 
          stroke="#5a4a3a" 
          stroke-width="1.5"/>
    
    <!-- Page lines on left -->
    <line x1="4" y1="10" x2="14" y2="10" stroke="#8b6f47" stroke-width="0.5" opacity="0.6"/>
    <line x1="4" y1="14" x2="14" y2="14" stroke="#8b6f47" stroke-width="0.5" opacity="0.6"/>
    <line x1="4" y1="18" x2="14" y2="18" stroke="#8b6f47" stroke-width="0.5" opacity="0.6"/>
    <line x1="4" y1="22" x2="14" y2="22" stroke="#8b6f47" stroke-width="0.5" opacity="0.6"/>
    
    <!-- Page lines on right -->
    <line x1="26" y1="10" x2="36" y2="10" stroke="#8b6f47" stroke-width="0.5" opacity="0.6"/>
    <line x1="26" y1="14" x2="36" y2="14" stroke="#8b6f47" stroke-width="0.5" opacity="0.6"/>
    <line x1="26" y1="18" x2="36" y2="18" stroke="#8b6f47" stroke-width="0.5" opacity="0.6"/>
    <line x1="26" y1="22" x2="36" y2="22" stroke="#8b6f47" stroke-width="0.5" opacity="0.6"/>
  </g>
</svg>
